<svg width="15" height="17" viewBox="0 0 15 17" fill="none" xmlns="http://www.w3.org/2000/svg">
<path d="M7.23779 8.5C9.42529 8.5 11.2378 6.71875 11.2378 4.5C11.2378 2.3125 9.42529 0.5 7.23779 0.5C5.01904 0.5 3.23779 2.3125 3.23779 4.5C3.23779 6.71875 5.01904 8.5 7.23779 8.5ZM10.019 9.5H9.48779C8.80029 9.84375 8.05029 10 7.23779 10C6.42529 10 5.64404 9.84375 4.95654 9.5H4.42529C2.11279 9.5 0.237793 11.4062 0.237793 13.7188V15C0.237793 15.8438 0.894043 16.5 1.73779 16.5H12.7378C13.5503 16.5 14.2378 15.8438 14.2378 15V13.7188C14.2378 11.4062 12.3315 9.5 10.019 9.5Z" fill="white"/>
</svg>
